
<svg width="1693px" height="228px" viewBox="0 0 1693 228" version="1.1" xmlns="http://www.w3.org/2000/svg" xmlns:xlink="http://www.w3.org/1999/xlink">
    <!-- Generator: Sketch 45.2 (43514) - http://www.bohemiancoding.com/sketch -->
    <desc>Created with Sketch.</desc>
    <defs></defs>
    <g id="Page-2" stroke="none" stroke-width="1" fill="none" fill-rule="evenodd">
        <g id="Group-3" transform="translate(159.000000, 1.000000)">
            <path d="M168.436211,84.4799957 L168.436211,42.4799957 C168.436211,19.2840362 149.63217,0.479995728 126.436211,0.479995728 L126.436211,0.479995728 L70,0.479995728 L70,0.479995728 C46.8040405,0.479995728 28,19.2840362 28,42.4799957 L28,42.4799957 L28,84.4799957 L45,84.4799957 L45,44.4799957 L45,44.4799957 C45,30.1205922 56.6405965,18.4799957 71,18.4799957 L71,18.4799957 L125.48448,18.4799957 L125.48448,18.4799957 C139.843883,18.4799957 151.48448,30.1205922 151.48448,44.4799957 L151.48448,84.4799957 L168.436211,84.4799957 Z" id="Combined-Shape" fill="#D8D8D8"></path>
            <path d="M98.0642379,149.227158 L98.0642379,129.183171 L66.530954,186.710935 L44,188.974955 L70.46842,144.31918 L98.0642379,121.224758 L98.0642379,86.5906032 L98.0642379,86.5906032 C98.0642379,85.8600602 98.1621592,85.1523879 98.3455926,84.4799957 L8,84.4799957 L8,84.4799957 C3.581722,84.4799957 -5.41083001e-16,88.0617177 0,92.4799957 L0,92.4799957 L0,218.959991 C5.41083001e-16,223.378269 3.581722,226.959991 8,226.959991 L98.0642379,226.959991 L98.0642379,195.850362 L70.249465,195.559345 L98.0642379,192.401649 L98.0642379,163.216761 L93.655308,158.106755 L98.0642379,149.227158 Z" id="Combined-Shape" fill="#54ACF9"></path>
            <path d="M97.2813548,130.611424 L106.12364,114.479996 L97.2813548,121.879938 L97.2813548,84.4799957 L187.345593,84.4799957 C191.763871,84.4799957 195.345593,88.0617177 195.345593,92.4799957 L195.345593,218.959991 C195.345593,223.378269 191.763871,226.959991 187.345593,226.959991 L97,226.959991 C97.1834334,226.287599 97.2813548,225.579927 97.2813548,224.849384 L97.2813548,195.842171 L148.99786,196.383265 L109.186219,126.827459 L97.2813548,150.803887 L97.2813548,130.611424 Z M97.2813548,162.30939 L120.998619,189.798005 L97.2813548,192.490527 L97.2813548,162.30939 Z" id="Combined-Shape" fill="#1B71BD"></path>
        </g>
        <text id="SECURITY-AS-CODE" font-family="SegoeUI-Light, Segoe UI" font-size="140" font-weight="300" letter-spacing="-1.95046449" fill="#1B71BD">
            <tspan x="565" y="226">SECURITY AS CODE</tspan>
        </text>
        <g id="Group-4" fill="#000000">
            <rect id="Rectangle" transform="translate(62.930199, 61.930199) rotate(-315.000000) translate(-62.930199, -61.930199) " x="55.4301994" y="-18.1523285" width="15" height="160.165056"></rect>
            <rect id="Rectangle" transform="translate(62.577044, 165.415278) rotate(-585.000000) translate(-62.577044, -165.415278) " x="55.0770439" y="85.3327504" width="15" height="160.165056"></rect>
        </g>
        <g id="Group-4" transform="translate(438.500000, 114.000000) rotate(-180.000000) translate(-438.500000, -114.000000) translate(376.000000, 0.000000)" fill="#000000">
            <rect id="Rectangle" transform="translate(62.225422, 62.132743) rotate(-315.000000) translate(-62.225422, -62.132743) " x="54.7254219" y="-17.9497848" width="15" height="160.165056"></rect>
            <rect id="Rectangle" transform="translate(62.225422, 165.185584) rotate(-585.000000) translate(-62.225422, -165.185584) " x="54.7254219" y="85.1030563" width="15" height="160.165056"></rect>
        </g>
        <text id="AZURE" font-family="SegoeUI-Light, Segoe UI" font-size="140" font-weight="300" fill="#000000">
            <tspan x="565" y="100">AZURE</tspan>
        </text>
    </g>
</svg>